%TF.GenerationSoftware,KiCad,Pcbnew,(6.0.9)*%
%TF.CreationDate,2022-12-15T09:26:13+01:00*%
%TF.ProjectId,Pipek,50697065-6b2e-46b6-9963-61645f706362,rev?*%
%TF.SameCoordinates,Original*%
%TF.FileFunction,Legend,Top*%
%TF.FilePolarity,Positive*%
%FSLAX46Y46*%
G04 Gerber Fmt 4.6, Leading zero omitted, Abs format (unit mm)*
G04 Created by KiCad (PCBNEW (6.0.9)) date 2022-12-15 09:26:13*
%MOMM*%
%LPD*%
G01*
G04 APERTURE LIST*
%ADD10C,0.150000*%
%ADD11C,0.120000*%
G04 APERTURE END LIST*
D10*
X195619047Y-171261904D02*
X195619047Y-174833333D01*
X195428571Y-175547619D01*
X195047619Y-176023809D01*
X194476190Y-176261904D01*
X194095238Y-176261904D01*
X199238095Y-176261904D02*
X199238095Y-173642857D01*
X199047619Y-173166666D01*
X198666666Y-172928571D01*
X197904761Y-172928571D01*
X197523809Y-173166666D01*
X199238095Y-176023809D02*
X198857142Y-176261904D01*
X197904761Y-176261904D01*
X197523809Y-176023809D01*
X197333333Y-175547619D01*
X197333333Y-175071428D01*
X197523809Y-174595238D01*
X197904761Y-174357142D01*
X198857142Y-174357142D01*
X199238095Y-174119047D01*
X201142857Y-176261904D02*
X201142857Y-171261904D01*
X201523809Y-174357142D02*
X202666666Y-176261904D01*
X202666666Y-172928571D02*
X201142857Y-174833333D01*
X206095238Y-172928571D02*
X206095238Y-176261904D01*
X204380952Y-172928571D02*
X204380952Y-175547619D01*
X204571428Y-176023809D01*
X204952380Y-176261904D01*
X205523809Y-176261904D01*
X205904761Y-176023809D01*
X206095238Y-175785714D01*
X208000000Y-176261904D02*
X208000000Y-171261904D01*
X208000000Y-173166666D02*
X208380952Y-172928571D01*
X209142857Y-172928571D01*
X209523809Y-173166666D01*
X209714285Y-173404761D01*
X209904761Y-173880952D01*
X209904761Y-175309523D01*
X209714285Y-175785714D01*
X209523809Y-176023809D01*
X209142857Y-176261904D01*
X208380952Y-176261904D01*
X208000000Y-176023809D01*
X216000000Y-173642857D02*
X216571428Y-173880952D01*
X216761904Y-174119047D01*
X216952380Y-174595238D01*
X216952380Y-175309523D01*
X216761904Y-175785714D01*
X216571428Y-176023809D01*
X216190476Y-176261904D01*
X214666666Y-176261904D01*
X214666666Y-171261904D01*
X216000000Y-171261904D01*
X216380952Y-171500000D01*
X216571428Y-171738095D01*
X216761904Y-172214285D01*
X216761904Y-172690476D01*
X216571428Y-173166666D01*
X216380952Y-173404761D01*
X216000000Y-173642857D01*
X214666666Y-173642857D01*
X220380952Y-176261904D02*
X220380952Y-173642857D01*
X220190476Y-173166666D01*
X219809523Y-172928571D01*
X219047619Y-172928571D01*
X218666666Y-173166666D01*
X220380952Y-176023809D02*
X220000000Y-176261904D01*
X219047619Y-176261904D01*
X218666666Y-176023809D01*
X218476190Y-175547619D01*
X218476190Y-175071428D01*
X218666666Y-174595238D01*
X219047619Y-174357142D01*
X220000000Y-174357142D01*
X220380952Y-174119047D01*
X222285714Y-172928571D02*
X222285714Y-176261904D01*
X222285714Y-173404761D02*
X222476190Y-173166666D01*
X222857142Y-172928571D01*
X223428571Y-172928571D01*
X223809523Y-173166666D01*
X224000000Y-173642857D01*
X224000000Y-176261904D01*
X227619047Y-176261904D02*
X227619047Y-173642857D01*
X227428571Y-173166666D01*
X227047619Y-172928571D01*
X226285714Y-172928571D01*
X225904761Y-173166666D01*
X227619047Y-176023809D02*
X227238095Y-176261904D01*
X226285714Y-176261904D01*
X225904761Y-176023809D01*
X225714285Y-175547619D01*
X225714285Y-175071428D01*
X225904761Y-174595238D01*
X226285714Y-174357142D01*
X227238095Y-174357142D01*
X227619047Y-174119047D01*
X229333333Y-176023809D02*
X229714285Y-176261904D01*
X230476190Y-176261904D01*
X230857142Y-176023809D01*
X231047619Y-175547619D01*
X231047619Y-175309523D01*
X230857142Y-174833333D01*
X230476190Y-174595238D01*
X229904761Y-174595238D01*
X229523809Y-174357142D01*
X229333333Y-173880952D01*
X229333333Y-173642857D01*
X229523809Y-173166666D01*
X229904761Y-172928571D01*
X230476190Y-172928571D01*
X230857142Y-173166666D01*
X232761904Y-176261904D02*
X232761904Y-172928571D01*
X232761904Y-171261904D02*
X232571428Y-171500000D01*
X232761904Y-171738095D01*
X232952380Y-171500000D01*
X232761904Y-171261904D01*
X232761904Y-171738095D01*
X236380952Y-176261904D02*
X236380952Y-173642857D01*
X236190476Y-173166666D01*
X235809523Y-172928571D01*
X235047619Y-172928571D01*
X234666666Y-173166666D01*
X236380952Y-176023809D02*
X236000000Y-176261904D01*
X235047619Y-176261904D01*
X234666666Y-176023809D01*
X234476190Y-175547619D01*
X234476190Y-175071428D01*
X234666666Y-174595238D01*
X235047619Y-174357142D01*
X236000000Y-174357142D01*
X236380952Y-174119047D01*
X238285714Y-176261904D02*
X238285714Y-171261904D01*
X238666666Y-174357142D02*
X239809523Y-176261904D01*
X239809523Y-172928571D02*
X238285714Y-174833333D01*
X244380952Y-171738095D02*
X244571428Y-171500000D01*
X244952380Y-171261904D01*
X245904761Y-171261904D01*
X246285714Y-171500000D01*
X246476190Y-171738095D01*
X246666666Y-172214285D01*
X246666666Y-172690476D01*
X246476190Y-173404761D01*
X244190476Y-176261904D01*
X246666666Y-176261904D01*
X250285714Y-171261904D02*
X248380952Y-171261904D01*
X248190476Y-173642857D01*
X248380952Y-173404761D01*
X248761904Y-173166666D01*
X249714285Y-173166666D01*
X250095238Y-173404761D01*
X250285714Y-173642857D01*
X250476190Y-174119047D01*
X250476190Y-175309523D01*
X250285714Y-175785714D01*
X250095238Y-176023809D01*
X249714285Y-176261904D01*
X248761904Y-176261904D01*
X248380952Y-176023809D01*
X248190476Y-175785714D01*
X252380952Y-176261904D02*
X253142857Y-176261904D01*
X253523809Y-176023809D01*
X253714285Y-175785714D01*
X254095238Y-175071428D01*
X254285714Y-174119047D01*
X254285714Y-172214285D01*
X254095238Y-171738095D01*
X253904761Y-171500000D01*
X253523809Y-171261904D01*
X252761904Y-171261904D01*
X252380952Y-171500000D01*
X252190476Y-171738095D01*
X252000000Y-172214285D01*
X252000000Y-173404761D01*
X252190476Y-173880952D01*
X252380952Y-174119047D01*
X252761904Y-174357142D01*
X253523809Y-174357142D01*
X253904761Y-174119047D01*
X254095238Y-173880952D01*
X254285714Y-173404761D01*
X257904761Y-171261904D02*
X256000000Y-171261904D01*
X255809523Y-173642857D01*
X256000000Y-173404761D01*
X256380952Y-173166666D01*
X257333333Y-173166666D01*
X257714285Y-173404761D01*
X257904761Y-173642857D01*
X258095238Y-174119047D01*
X258095238Y-175309523D01*
X257904761Y-175785714D01*
X257714285Y-176023809D01*
X257333333Y-176261904D01*
X256380952Y-176261904D01*
X256000000Y-176023809D01*
X255809523Y-175785714D01*
X261523809Y-171261904D02*
X260761904Y-171261904D01*
X260380952Y-171500000D01*
X260190476Y-171738095D01*
X259809523Y-172452380D01*
X259619047Y-173404761D01*
X259619047Y-175309523D01*
X259809523Y-175785714D01*
X259999999Y-176023809D01*
X260380952Y-176261904D01*
X261142857Y-176261904D01*
X261523809Y-176023809D01*
X261714285Y-175785714D01*
X261904761Y-175309523D01*
X261904761Y-174119047D01*
X261714285Y-173642857D01*
X261523809Y-173404761D01*
X261142857Y-173166666D01*
X260380952Y-173166666D01*
X259999999Y-173404761D01*
X259809523Y-173642857D01*
X259619047Y-174119047D01*
X265333333Y-172928571D02*
X265333333Y-176261904D01*
X264380952Y-171023809D02*
X263428571Y-174595238D01*
X265904761Y-174595238D01*
X209452380Y-192452380D02*
X209547619Y-192452380D01*
X209642857Y-192500000D01*
X209690476Y-192547619D01*
X209738095Y-192642857D01*
X209785714Y-192833333D01*
X209785714Y-193071428D01*
X209738095Y-193261904D01*
X209690476Y-193357142D01*
X209642857Y-193404761D01*
X209547619Y-193452380D01*
X209452380Y-193452380D01*
X209357142Y-193404761D01*
X209309523Y-193357142D01*
X209261904Y-193261904D01*
X209214285Y-193071428D01*
X209214285Y-192833333D01*
X209261904Y-192642857D01*
X209309523Y-192547619D01*
X209357142Y-192500000D01*
X209452380Y-192452380D01*
X210738095Y-193452380D02*
X210166666Y-193452380D01*
X210452380Y-193452380D02*
X210452380Y-192452380D01*
X210357142Y-192595238D01*
X210261904Y-192690476D01*
X210166666Y-192738095D01*
X211166666Y-193357142D02*
X211214285Y-193404761D01*
X211166666Y-193452380D01*
X211119047Y-193404761D01*
X211166666Y-193357142D01*
X211166666Y-193452380D01*
X212166666Y-193452380D02*
X211595238Y-193452380D01*
X211880952Y-193452380D02*
X211880952Y-192452380D01*
X211785714Y-192595238D01*
X211690476Y-192690476D01*
X211595238Y-192738095D01*
X212547619Y-192547619D02*
X212595238Y-192500000D01*
X212690476Y-192452380D01*
X212928571Y-192452380D01*
X213023809Y-192500000D01*
X213071428Y-192547619D01*
X213119047Y-192642857D01*
X213119047Y-192738095D01*
X213071428Y-192880952D01*
X212500000Y-193452380D01*
X213119047Y-193452380D01*
X213547619Y-193357142D02*
X213595238Y-193404761D01*
X213547619Y-193452380D01*
X213500000Y-193404761D01*
X213547619Y-193357142D01*
X213547619Y-193452380D01*
X213976190Y-192547619D02*
X214023809Y-192500000D01*
X214119047Y-192452380D01*
X214357142Y-192452380D01*
X214452380Y-192500000D01*
X214500000Y-192547619D01*
X214547619Y-192642857D01*
X214547619Y-192738095D01*
X214500000Y-192880952D01*
X213928571Y-193452380D01*
X214547619Y-193452380D01*
X215166666Y-192452380D02*
X215261904Y-192452380D01*
X215357142Y-192500000D01*
X215404761Y-192547619D01*
X215452380Y-192642857D01*
X215500000Y-192833333D01*
X215500000Y-193071428D01*
X215452380Y-193261904D01*
X215404761Y-193357142D01*
X215357142Y-193404761D01*
X215261904Y-193452380D01*
X215166666Y-193452380D01*
X215071428Y-193404761D01*
X215023809Y-193357142D01*
X214976190Y-193261904D01*
X214928571Y-193071428D01*
X214928571Y-192833333D01*
X214976190Y-192642857D01*
X215023809Y-192547619D01*
X215071428Y-192500000D01*
X215166666Y-192452380D01*
X215880952Y-192547619D02*
X215928571Y-192500000D01*
X216023809Y-192452380D01*
X216261904Y-192452380D01*
X216357142Y-192500000D01*
X216404761Y-192547619D01*
X216452380Y-192642857D01*
X216452380Y-192738095D01*
X216404761Y-192880952D01*
X215833333Y-193452380D01*
X216452380Y-193452380D01*
X216833333Y-192547619D02*
X216880952Y-192500000D01*
X216976190Y-192452380D01*
X217214285Y-192452380D01*
X217309523Y-192500000D01*
X217357142Y-192547619D01*
X217404761Y-192642857D01*
X217404761Y-192738095D01*
X217357142Y-192880952D01*
X216785714Y-193452380D01*
X217404761Y-193452380D01*
X218595238Y-193452380D02*
X218595238Y-192785714D01*
X218595238Y-192976190D02*
X218642857Y-192880952D01*
X218690476Y-192833333D01*
X218785714Y-192785714D01*
X218880952Y-192785714D01*
X190071428Y-189452380D02*
X190071428Y-188452380D01*
X190452380Y-188452380D01*
X190547619Y-188500000D01*
X190595238Y-188547619D01*
X190642857Y-188642857D01*
X190642857Y-188785714D01*
X190595238Y-188880952D01*
X190547619Y-188928571D01*
X190452380Y-188976190D01*
X190071428Y-188976190D01*
X191071428Y-189452380D02*
X191071428Y-188785714D01*
X191071428Y-188452380D02*
X191023809Y-188500000D01*
X191071428Y-188547619D01*
X191119047Y-188500000D01*
X191071428Y-188452380D01*
X191071428Y-188547619D01*
X191547619Y-188785714D02*
X191547619Y-189785714D01*
X191547619Y-188833333D02*
X191642857Y-188785714D01*
X191833333Y-188785714D01*
X191928571Y-188833333D01*
X191976190Y-188880952D01*
X192023809Y-188976190D01*
X192023809Y-189261904D01*
X191976190Y-189357142D01*
X191928571Y-189404761D01*
X191833333Y-189452380D01*
X191642857Y-189452380D01*
X191547619Y-189404761D01*
X192833333Y-189404761D02*
X192738095Y-189452380D01*
X192547619Y-189452380D01*
X192452380Y-189404761D01*
X192404761Y-189309523D01*
X192404761Y-188928571D01*
X192452380Y-188833333D01*
X192547619Y-188785714D01*
X192738095Y-188785714D01*
X192833333Y-188833333D01*
X192880952Y-188928571D01*
X192880952Y-189023809D01*
X192404761Y-189119047D01*
X193309523Y-189452380D02*
X193309523Y-188452380D01*
X193404761Y-189071428D02*
X193690476Y-189452380D01*
X193690476Y-188785714D02*
X193309523Y-189166666D01*
X195309523Y-189452380D02*
X195309523Y-188452380D01*
X195309523Y-189404761D02*
X195214285Y-189452380D01*
X195023809Y-189452380D01*
X194928571Y-189404761D01*
X194880952Y-189357142D01*
X194833333Y-189261904D01*
X194833333Y-188976190D01*
X194880952Y-188880952D01*
X194928571Y-188833333D01*
X195023809Y-188785714D01*
X195214285Y-188785714D01*
X195309523Y-188833333D01*
X195785714Y-189452380D02*
X195785714Y-188785714D01*
X195785714Y-188976190D02*
X195833333Y-188880952D01*
X195880952Y-188833333D01*
X195976190Y-188785714D01*
X196071428Y-188785714D01*
X196785714Y-189404761D02*
X196690476Y-189452380D01*
X196500000Y-189452380D01*
X196404761Y-189404761D01*
X196357142Y-189309523D01*
X196357142Y-188928571D01*
X196404761Y-188833333D01*
X196500000Y-188785714D01*
X196690476Y-188785714D01*
X196785714Y-188833333D01*
X196833333Y-188928571D01*
X196833333Y-189023809D01*
X196357142Y-189119047D01*
X197690476Y-189404761D02*
X197595238Y-189452380D01*
X197404761Y-189452380D01*
X197309523Y-189404761D01*
X197261904Y-189357142D01*
X197214285Y-189261904D01*
X197214285Y-188976190D01*
X197261904Y-188880952D01*
X197309523Y-188833333D01*
X197404761Y-188785714D01*
X197595238Y-188785714D01*
X197690476Y-188833333D01*
X198023809Y-188785714D02*
X198547619Y-188785714D01*
X198023809Y-189452380D01*
X198547619Y-189452380D01*
X198833333Y-188785714D02*
X199071428Y-189452380D01*
X199309523Y-188785714D02*
X199071428Y-189452380D01*
X198976190Y-189690476D01*
X198928571Y-189738095D01*
X198833333Y-189785714D01*
X200119047Y-189404761D02*
X200023809Y-189452380D01*
X199833333Y-189452380D01*
X199738095Y-189404761D01*
X199690476Y-189357142D01*
X199642857Y-189261904D01*
X199642857Y-188976190D01*
X199690476Y-188880952D01*
X199738095Y-188833333D01*
X199833333Y-188785714D01*
X200023809Y-188785714D01*
X200119047Y-188833333D01*
X200547619Y-189452380D02*
X200547619Y-188785714D01*
X200547619Y-188452380D02*
X200500000Y-188500000D01*
X200547619Y-188547619D01*
X200595238Y-188500000D01*
X200547619Y-188452380D01*
X200547619Y-188547619D01*
X201404761Y-189404761D02*
X201309523Y-189452380D01*
X201119047Y-189452380D01*
X201023809Y-189404761D01*
X200976190Y-189309523D01*
X200976190Y-188928571D01*
X201023809Y-188833333D01*
X201119047Y-188785714D01*
X201309523Y-188785714D01*
X201404761Y-188833333D01*
X201452380Y-188928571D01*
X201452380Y-189023809D01*
X200976190Y-189119047D01*
X202023809Y-189452380D02*
X201928571Y-189404761D01*
X201880952Y-189309523D01*
X201880952Y-188452380D01*
%TO.C,LS1*%
X183357142Y-88452380D02*
X182880952Y-88452380D01*
X182880952Y-87452380D01*
X183642857Y-88404761D02*
X183785714Y-88452380D01*
X184023809Y-88452380D01*
X184119047Y-88404761D01*
X184166666Y-88357142D01*
X184214285Y-88261904D01*
X184214285Y-88166666D01*
X184166666Y-88071428D01*
X184119047Y-88023809D01*
X184023809Y-87976190D01*
X183833333Y-87928571D01*
X183738095Y-87880952D01*
X183690476Y-87833333D01*
X183642857Y-87738095D01*
X183642857Y-87642857D01*
X183690476Y-87547619D01*
X183738095Y-87500000D01*
X183833333Y-87452380D01*
X184071428Y-87452380D01*
X184214285Y-87500000D01*
X185166666Y-88452380D02*
X184595238Y-88452380D01*
X184880952Y-88452380D02*
X184880952Y-87452380D01*
X184785714Y-87595238D01*
X184690476Y-87690476D01*
X184595238Y-87738095D01*
X181531428Y-99190952D02*
X181531428Y-98429047D01*
X181912380Y-98810000D02*
X181150476Y-98810000D01*
%TO.C,REF\u002A\u002A*%
X116666666Y-68252380D02*
X116333333Y-67776190D01*
X116095238Y-68252380D02*
X116095238Y-67252380D01*
X116476190Y-67252380D01*
X116571428Y-67300000D01*
X116619047Y-67347619D01*
X116666666Y-67442857D01*
X116666666Y-67585714D01*
X116619047Y-67680952D01*
X116571428Y-67728571D01*
X116476190Y-67776190D01*
X116095238Y-67776190D01*
X117095238Y-67728571D02*
X117428571Y-67728571D01*
X117571428Y-68252380D02*
X117095238Y-68252380D01*
X117095238Y-67252380D01*
X117571428Y-67252380D01*
X118333333Y-67728571D02*
X118000000Y-67728571D01*
X118000000Y-68252380D02*
X118000000Y-67252380D01*
X118476190Y-67252380D01*
X119000000Y-67252380D02*
X119000000Y-67490476D01*
X118761904Y-67395238D02*
X119000000Y-67490476D01*
X119238095Y-67395238D01*
X118857142Y-67680952D02*
X119000000Y-67490476D01*
X119142857Y-67680952D01*
X119761904Y-67252380D02*
X119761904Y-67490476D01*
X119523809Y-67395238D02*
X119761904Y-67490476D01*
X120000000Y-67395238D01*
X119619047Y-67680952D02*
X119761904Y-67490476D01*
X119904761Y-67680952D01*
%TO.C,Q1*%
X154634761Y-97787619D02*
X154539523Y-97740000D01*
X154444285Y-97644761D01*
X154301428Y-97501904D01*
X154206190Y-97454285D01*
X154110952Y-97454285D01*
X154158571Y-97692380D02*
X154063333Y-97644761D01*
X153968095Y-97549523D01*
X153920476Y-97359047D01*
X153920476Y-97025714D01*
X153968095Y-96835238D01*
X154063333Y-96740000D01*
X154158571Y-96692380D01*
X154349047Y-96692380D01*
X154444285Y-96740000D01*
X154539523Y-96835238D01*
X154587142Y-97025714D01*
X154587142Y-97359047D01*
X154539523Y-97549523D01*
X154444285Y-97644761D01*
X154349047Y-97692380D01*
X154158571Y-97692380D01*
X155539523Y-97692380D02*
X154968095Y-97692380D01*
X155253809Y-97692380D02*
X155253809Y-96692380D01*
X155158571Y-96835238D01*
X155063333Y-96930476D01*
X154968095Y-96978095D01*
%TO.C,R4*%
X148822380Y-103166666D02*
X148346190Y-103500000D01*
X148822380Y-103738095D02*
X147822380Y-103738095D01*
X147822380Y-103357142D01*
X147870000Y-103261904D01*
X147917619Y-103214285D01*
X148012857Y-103166666D01*
X148155714Y-103166666D01*
X148250952Y-103214285D01*
X148298571Y-103261904D01*
X148346190Y-103357142D01*
X148346190Y-103738095D01*
X148155714Y-102309523D02*
X148822380Y-102309523D01*
X147774761Y-102547619D02*
X148489047Y-102785714D01*
X148489047Y-102166666D01*
%TO.C,D1*%
X160572380Y-105018095D02*
X159572380Y-105018095D01*
X159572380Y-104780000D01*
X159620000Y-104637142D01*
X159715238Y-104541904D01*
X159810476Y-104494285D01*
X160000952Y-104446666D01*
X160143809Y-104446666D01*
X160334285Y-104494285D01*
X160429523Y-104541904D01*
X160524761Y-104637142D01*
X160572380Y-104780000D01*
X160572380Y-105018095D01*
X160572380Y-103494285D02*
X160572380Y-104065714D01*
X160572380Y-103780000D02*
X159572380Y-103780000D01*
X159715238Y-103875238D01*
X159810476Y-103970476D01*
X159858095Y-104065714D01*
X160252380Y-100731904D02*
X159252380Y-100731904D01*
X160252380Y-100160476D02*
X159680952Y-100589047D01*
X159252380Y-100160476D02*
X159823809Y-100731904D01*
%TO.C,R1*%
X144082380Y-87166666D02*
X143606190Y-87500000D01*
X144082380Y-87738095D02*
X143082380Y-87738095D01*
X143082380Y-87357142D01*
X143130000Y-87261904D01*
X143177619Y-87214285D01*
X143272857Y-87166666D01*
X143415714Y-87166666D01*
X143510952Y-87214285D01*
X143558571Y-87261904D01*
X143606190Y-87357142D01*
X143606190Y-87738095D01*
X144082380Y-86214285D02*
X144082380Y-86785714D01*
X144082380Y-86500000D02*
X143082380Y-86500000D01*
X143225238Y-86595238D01*
X143320476Y-86690476D01*
X143368095Y-86785714D01*
%TO.C,D2*%
X150332380Y-105018095D02*
X149332380Y-105018095D01*
X149332380Y-104780000D01*
X149380000Y-104637142D01*
X149475238Y-104541904D01*
X149570476Y-104494285D01*
X149760952Y-104446666D01*
X149903809Y-104446666D01*
X150094285Y-104494285D01*
X150189523Y-104541904D01*
X150284761Y-104637142D01*
X150332380Y-104780000D01*
X150332380Y-105018095D01*
X149427619Y-104065714D02*
X149380000Y-104018095D01*
X149332380Y-103922857D01*
X149332380Y-103684761D01*
X149380000Y-103589523D01*
X149427619Y-103541904D01*
X149522857Y-103494285D01*
X149618095Y-103494285D01*
X149760952Y-103541904D01*
X150332380Y-104113333D01*
X150332380Y-103494285D01*
X150652380Y-108351904D02*
X149652380Y-108351904D01*
X150652380Y-107780476D02*
X150080952Y-108209047D01*
X149652380Y-107780476D02*
X150223809Y-108351904D01*
%TO.C,C2*%
X169833333Y-79607142D02*
X169785714Y-79654761D01*
X169642857Y-79702380D01*
X169547619Y-79702380D01*
X169404761Y-79654761D01*
X169309523Y-79559523D01*
X169261904Y-79464285D01*
X169214285Y-79273809D01*
X169214285Y-79130952D01*
X169261904Y-78940476D01*
X169309523Y-78845238D01*
X169404761Y-78750000D01*
X169547619Y-78702380D01*
X169642857Y-78702380D01*
X169785714Y-78750000D01*
X169833333Y-78797619D01*
X170214285Y-78797619D02*
X170261904Y-78750000D01*
X170357142Y-78702380D01*
X170595238Y-78702380D01*
X170690476Y-78750000D01*
X170738095Y-78797619D01*
X170785714Y-78892857D01*
X170785714Y-78988095D01*
X170738095Y-79130952D01*
X170166666Y-79702380D01*
X170785714Y-79702380D01*
%TO.C,REF\u002A\u002A*%
X116666666Y-108252380D02*
X116333333Y-107776190D01*
X116095238Y-108252380D02*
X116095238Y-107252380D01*
X116476190Y-107252380D01*
X116571428Y-107300000D01*
X116619047Y-107347619D01*
X116666666Y-107442857D01*
X116666666Y-107585714D01*
X116619047Y-107680952D01*
X116571428Y-107728571D01*
X116476190Y-107776190D01*
X116095238Y-107776190D01*
X117095238Y-107728571D02*
X117428571Y-107728571D01*
X117571428Y-108252380D02*
X117095238Y-108252380D01*
X117095238Y-107252380D01*
X117571428Y-107252380D01*
X118333333Y-107728571D02*
X118000000Y-107728571D01*
X118000000Y-108252380D02*
X118000000Y-107252380D01*
X118476190Y-107252380D01*
X119000000Y-107252380D02*
X119000000Y-107490476D01*
X118761904Y-107395238D02*
X119000000Y-107490476D01*
X119238095Y-107395238D01*
X118857142Y-107680952D02*
X119000000Y-107490476D01*
X119142857Y-107680952D01*
X119761904Y-107252380D02*
X119761904Y-107490476D01*
X119523809Y-107395238D02*
X119761904Y-107490476D01*
X120000000Y-107395238D01*
X119619047Y-107680952D02*
X119761904Y-107490476D01*
X119904761Y-107680952D01*
X184666666Y-108252380D02*
X184333333Y-107776190D01*
X184095238Y-108252380D02*
X184095238Y-107252380D01*
X184476190Y-107252380D01*
X184571428Y-107300000D01*
X184619047Y-107347619D01*
X184666666Y-107442857D01*
X184666666Y-107585714D01*
X184619047Y-107680952D01*
X184571428Y-107728571D01*
X184476190Y-107776190D01*
X184095238Y-107776190D01*
X185095238Y-107728571D02*
X185428571Y-107728571D01*
X185571428Y-108252380D02*
X185095238Y-108252380D01*
X185095238Y-107252380D01*
X185571428Y-107252380D01*
X186333333Y-107728571D02*
X186000000Y-107728571D01*
X186000000Y-108252380D02*
X186000000Y-107252380D01*
X186476190Y-107252380D01*
X187000000Y-107252380D02*
X187000000Y-107490476D01*
X186761904Y-107395238D02*
X187000000Y-107490476D01*
X187238095Y-107395238D01*
X186857142Y-107680952D02*
X187000000Y-107490476D01*
X187142857Y-107680952D01*
X187761904Y-107252380D02*
X187761904Y-107490476D01*
X187523809Y-107395238D02*
X187761904Y-107490476D01*
X188000000Y-107395238D01*
X187619047Y-107680952D02*
X187761904Y-107490476D01*
X187904761Y-107680952D01*
%TO.C,Q2*%
X150987619Y-83825238D02*
X150940000Y-83920476D01*
X150844761Y-84015714D01*
X150701904Y-84158571D01*
X150654285Y-84253809D01*
X150654285Y-84349047D01*
X150892380Y-84301428D02*
X150844761Y-84396666D01*
X150749523Y-84491904D01*
X150559047Y-84539523D01*
X150225714Y-84539523D01*
X150035238Y-84491904D01*
X149940000Y-84396666D01*
X149892380Y-84301428D01*
X149892380Y-84110952D01*
X149940000Y-84015714D01*
X150035238Y-83920476D01*
X150225714Y-83872857D01*
X150559047Y-83872857D01*
X150749523Y-83920476D01*
X150844761Y-84015714D01*
X150892380Y-84110952D01*
X150892380Y-84301428D01*
X149987619Y-83491904D02*
X149940000Y-83444285D01*
X149892380Y-83349047D01*
X149892380Y-83110952D01*
X149940000Y-83015714D01*
X149987619Y-82968095D01*
X150082857Y-82920476D01*
X150178095Y-82920476D01*
X150320952Y-82968095D01*
X150892380Y-83539523D01*
X150892380Y-82920476D01*
%TO.C,U1*%
X175782380Y-96571904D02*
X176591904Y-96571904D01*
X176687142Y-96524285D01*
X176734761Y-96476666D01*
X176782380Y-96381428D01*
X176782380Y-96190952D01*
X176734761Y-96095714D01*
X176687142Y-96048095D01*
X176591904Y-96000476D01*
X175782380Y-96000476D01*
X176782380Y-95000476D02*
X176782380Y-95571904D01*
X176782380Y-95286190D02*
X175782380Y-95286190D01*
X175925238Y-95381428D01*
X176020476Y-95476666D01*
X176068095Y-95571904D01*
%TO.C,R3*%
X168753333Y-112822380D02*
X168420000Y-112346190D01*
X168181904Y-112822380D02*
X168181904Y-111822380D01*
X168562857Y-111822380D01*
X168658095Y-111870000D01*
X168705714Y-111917619D01*
X168753333Y-112012857D01*
X168753333Y-112155714D01*
X168705714Y-112250952D01*
X168658095Y-112298571D01*
X168562857Y-112346190D01*
X168181904Y-112346190D01*
X169086666Y-111822380D02*
X169705714Y-111822380D01*
X169372380Y-112203333D01*
X169515238Y-112203333D01*
X169610476Y-112250952D01*
X169658095Y-112298571D01*
X169705714Y-112393809D01*
X169705714Y-112631904D01*
X169658095Y-112727142D01*
X169610476Y-112774761D01*
X169515238Y-112822380D01*
X169229523Y-112822380D01*
X169134285Y-112774761D01*
X169086666Y-112727142D01*
%TO.C,R2*%
X168753333Y-107822380D02*
X168420000Y-107346190D01*
X168181904Y-107822380D02*
X168181904Y-106822380D01*
X168562857Y-106822380D01*
X168658095Y-106870000D01*
X168705714Y-106917619D01*
X168753333Y-107012857D01*
X168753333Y-107155714D01*
X168705714Y-107250952D01*
X168658095Y-107298571D01*
X168562857Y-107346190D01*
X168181904Y-107346190D01*
X169134285Y-106917619D02*
X169181904Y-106870000D01*
X169277142Y-106822380D01*
X169515238Y-106822380D01*
X169610476Y-106870000D01*
X169658095Y-106917619D01*
X169705714Y-107012857D01*
X169705714Y-107108095D01*
X169658095Y-107250952D01*
X169086666Y-107822380D01*
X169705714Y-107822380D01*
%TO.C,REF\u002A\u002A*%
X184666666Y-68252380D02*
X184333333Y-67776190D01*
X184095238Y-68252380D02*
X184095238Y-67252380D01*
X184476190Y-67252380D01*
X184571428Y-67300000D01*
X184619047Y-67347619D01*
X184666666Y-67442857D01*
X184666666Y-67585714D01*
X184619047Y-67680952D01*
X184571428Y-67728571D01*
X184476190Y-67776190D01*
X184095238Y-67776190D01*
X185095238Y-67728571D02*
X185428571Y-67728571D01*
X185571428Y-68252380D02*
X185095238Y-68252380D01*
X185095238Y-67252380D01*
X185571428Y-67252380D01*
X186333333Y-67728571D02*
X186000000Y-67728571D01*
X186000000Y-68252380D02*
X186000000Y-67252380D01*
X186476190Y-67252380D01*
X187000000Y-67252380D02*
X187000000Y-67490476D01*
X186761904Y-67395238D02*
X187000000Y-67490476D01*
X187238095Y-67395238D01*
X186857142Y-67680952D02*
X187000000Y-67490476D01*
X187142857Y-67680952D01*
X187761904Y-67252380D02*
X187761904Y-67490476D01*
X187523809Y-67395238D02*
X187761904Y-67490476D01*
X188000000Y-67395238D01*
X187619047Y-67680952D02*
X187761904Y-67490476D01*
X187904761Y-67680952D01*
%TO.C,C1*%
X159857142Y-85166666D02*
X159904761Y-85214285D01*
X159952380Y-85357142D01*
X159952380Y-85452380D01*
X159904761Y-85595238D01*
X159809523Y-85690476D01*
X159714285Y-85738095D01*
X159523809Y-85785714D01*
X159380952Y-85785714D01*
X159190476Y-85738095D01*
X159095238Y-85690476D01*
X159000000Y-85595238D01*
X158952380Y-85452380D01*
X158952380Y-85357142D01*
X159000000Y-85214285D01*
X159047619Y-85166666D01*
X159952380Y-84214285D02*
X159952380Y-84785714D01*
X159952380Y-84500000D02*
X158952380Y-84500000D01*
X159095238Y-84595238D01*
X159190476Y-84690476D01*
X159238095Y-84785714D01*
D11*
%TO.C,LS1*%
X190100000Y-95000000D02*
G75*
G03*
X190100000Y-95000000I-6100000J0D01*
G01*
%TO.C,Q1*%
X157290000Y-93545000D02*
X157290000Y-90455000D01*
X157290000Y-90455170D02*
G75*
G03*
X151740000Y-92000462I-2560000J-1544830D01*
G01*
X151740000Y-91999538D02*
G75*
G03*
X157290000Y-93544830I2990000J-462D01*
G01*
X157230000Y-92000000D02*
G75*
G03*
X157230000Y-92000000I-2500000J0D01*
G01*
%TO.C,R4*%
X147370000Y-106270000D02*
X147370000Y-99730000D01*
X146000000Y-107040000D02*
X146000000Y-106270000D01*
X146000000Y-98960000D02*
X146000000Y-99730000D01*
X144630000Y-106270000D02*
X147370000Y-106270000D01*
X147370000Y-99730000D02*
X144630000Y-99730000D01*
X144630000Y-99730000D02*
X144630000Y-106270000D01*
%TO.C,D1*%
X159120000Y-106400000D02*
X159120000Y-102160000D01*
X159120000Y-103000000D02*
X156880000Y-103000000D01*
X158000000Y-107050000D02*
X158000000Y-106400000D01*
X159120000Y-102760000D02*
X156880000Y-102760000D01*
X158000000Y-101510000D02*
X158000000Y-102160000D01*
X156880000Y-106400000D02*
X159120000Y-106400000D01*
X159120000Y-102880000D02*
X156880000Y-102880000D01*
X159120000Y-102160000D02*
X156880000Y-102160000D01*
X156880000Y-102160000D02*
X156880000Y-106400000D01*
%TO.C,R1*%
X146000000Y-91040000D02*
X146000000Y-90270000D01*
X146000000Y-82960000D02*
X146000000Y-83730000D01*
X147370000Y-90270000D02*
X147370000Y-83730000D01*
X144630000Y-83730000D02*
X144630000Y-90270000D01*
X147370000Y-83730000D02*
X144630000Y-83730000D01*
X144630000Y-90270000D02*
X147370000Y-90270000D01*
%TO.C,D2*%
X150880000Y-105800000D02*
X153120000Y-105800000D01*
X153120000Y-102160000D02*
X150880000Y-102160000D01*
X153120000Y-106400000D02*
X153120000Y-102160000D01*
X150880000Y-102160000D02*
X150880000Y-106400000D01*
X152000000Y-101510000D02*
X152000000Y-102160000D01*
X152000000Y-107050000D02*
X152000000Y-106400000D01*
X150880000Y-105680000D02*
X153120000Y-105680000D01*
X150880000Y-106400000D02*
X153120000Y-106400000D01*
X150880000Y-105560000D02*
X153120000Y-105560000D01*
%TO.C,C2*%
X171521000Y-80905000D02*
X171521000Y-81960000D01*
X170801000Y-80545000D02*
X170801000Y-81960000D01*
X172321000Y-81822000D02*
X172321000Y-84178000D01*
X171841000Y-84040000D02*
X171841000Y-84826000D01*
X171961000Y-81301000D02*
X171961000Y-81960000D01*
X170841000Y-84040000D02*
X170841000Y-85442000D01*
X170761000Y-84040000D02*
X170761000Y-85468000D01*
X170921000Y-84040000D02*
X170921000Y-85414000D01*
X167195225Y-81525000D02*
X167695225Y-81525000D01*
X170400000Y-80450000D02*
X170400000Y-81960000D01*
X170360000Y-80444000D02*
X170360000Y-81960000D01*
X171201000Y-80710000D02*
X171201000Y-81960000D01*
X170520000Y-80472000D02*
X170520000Y-81960000D01*
X171921000Y-81257000D02*
X171921000Y-81960000D01*
X171001000Y-84040000D02*
X171001000Y-85382000D01*
X170200000Y-84040000D02*
X170200000Y-85573000D01*
X171841000Y-81174000D02*
X171841000Y-81960000D01*
X170200000Y-80427000D02*
X170200000Y-81960000D01*
X170080000Y-80421000D02*
X170080000Y-81960000D01*
X171881000Y-81215000D02*
X171881000Y-81960000D01*
X171601000Y-80965000D02*
X171601000Y-81960000D01*
X172161000Y-81557000D02*
X172161000Y-84443000D01*
X171601000Y-84040000D02*
X171601000Y-85035000D01*
X171881000Y-84040000D02*
X171881000Y-84785000D01*
X171721000Y-81063000D02*
X171721000Y-81960000D01*
X170560000Y-84040000D02*
X170560000Y-85520000D01*
X171961000Y-84040000D02*
X171961000Y-84699000D01*
X170640000Y-80499000D02*
X170640000Y-81960000D01*
X171041000Y-84040000D02*
X171041000Y-85365000D01*
X172001000Y-84040000D02*
X172001000Y-84653000D01*
X171561000Y-80935000D02*
X171561000Y-81960000D01*
X172081000Y-81446000D02*
X172081000Y-84554000D01*
X171361000Y-80800000D02*
X171361000Y-81960000D01*
X171441000Y-84040000D02*
X171441000Y-85149000D01*
X170680000Y-80509000D02*
X170680000Y-81960000D01*
X170480000Y-84040000D02*
X170480000Y-85536000D01*
X171161000Y-80690000D02*
X171161000Y-81960000D01*
X170440000Y-80457000D02*
X170440000Y-81960000D01*
X172121000Y-81500000D02*
X172121000Y-84500000D01*
X170600000Y-84040000D02*
X170600000Y-85511000D01*
X170961000Y-80602000D02*
X170961000Y-81960000D01*
X171241000Y-80732000D02*
X171241000Y-81960000D01*
X170520000Y-84040000D02*
X170520000Y-85528000D01*
X170400000Y-84040000D02*
X170400000Y-85550000D01*
X170320000Y-80439000D02*
X170320000Y-81960000D01*
X170360000Y-84040000D02*
X170360000Y-85556000D01*
X171681000Y-81029000D02*
X171681000Y-81960000D01*
X172521000Y-82323000D02*
X172521000Y-83677000D01*
X171761000Y-81099000D02*
X171761000Y-81960000D01*
X172281000Y-81749000D02*
X172281000Y-84251000D01*
X170881000Y-84040000D02*
X170881000Y-85428000D01*
X171801000Y-84040000D02*
X171801000Y-84864000D01*
X170040000Y-80420000D02*
X170040000Y-81960000D01*
X171401000Y-84040000D02*
X171401000Y-85175000D01*
X170480000Y-80464000D02*
X170480000Y-81960000D01*
X171121000Y-80671000D02*
X171121000Y-81960000D01*
X170120000Y-84040000D02*
X170120000Y-85578000D01*
X171681000Y-84040000D02*
X171681000Y-84971000D01*
X171521000Y-84040000D02*
X171521000Y-85095000D01*
X171241000Y-84040000D02*
X171241000Y-85268000D01*
X170680000Y-84040000D02*
X170680000Y-85491000D01*
X171441000Y-80851000D02*
X171441000Y-81960000D01*
X171401000Y-80825000D02*
X171401000Y-81960000D01*
X170721000Y-80520000D02*
X170721000Y-81960000D01*
X167445225Y-81275000D02*
X167445225Y-81775000D01*
X171641000Y-84040000D02*
X171641000Y-85004000D01*
X172481000Y-82195000D02*
X172481000Y-83805000D01*
X170000000Y-80420000D02*
X170000000Y-81960000D01*
X170320000Y-84040000D02*
X170320000Y-85561000D01*
X172561000Y-82482000D02*
X172561000Y-83518000D01*
X171481000Y-84040000D02*
X171481000Y-85122000D01*
X170881000Y-80572000D02*
X170881000Y-81960000D01*
X171321000Y-80776000D02*
X171321000Y-81960000D01*
X171161000Y-84040000D02*
X171161000Y-85310000D01*
X170120000Y-80422000D02*
X170120000Y-81960000D01*
X170440000Y-84040000D02*
X170440000Y-85543000D01*
X172041000Y-81395000D02*
X172041000Y-84605000D01*
X170160000Y-80424000D02*
X170160000Y-81960000D01*
X171921000Y-84040000D02*
X171921000Y-84743000D01*
X171361000Y-84040000D02*
X171361000Y-85200000D01*
X171481000Y-80878000D02*
X171481000Y-81960000D01*
X170640000Y-84040000D02*
X170640000Y-85501000D01*
X171761000Y-84040000D02*
X171761000Y-84901000D01*
X171081000Y-80652000D02*
X171081000Y-81960000D01*
X172601000Y-82716000D02*
X172601000Y-83284000D01*
X170280000Y-84040000D02*
X170280000Y-85565000D01*
X171001000Y-80618000D02*
X171001000Y-81960000D01*
X170961000Y-84040000D02*
X170961000Y-85398000D01*
X172441000Y-82085000D02*
X172441000Y-83915000D01*
X170000000Y-84040000D02*
X170000000Y-85580000D01*
X171721000Y-84040000D02*
X171721000Y-84937000D01*
X170841000Y-80558000D02*
X170841000Y-81960000D01*
X172201000Y-81617000D02*
X172201000Y-84383000D01*
X170160000Y-84040000D02*
X170160000Y-85576000D01*
X170921000Y-80586000D02*
X170921000Y-81960000D01*
X171081000Y-84040000D02*
X171081000Y-85348000D01*
X171041000Y-80635000D02*
X171041000Y-81960000D01*
X170600000Y-80489000D02*
X170600000Y-81960000D01*
X171641000Y-80996000D02*
X171641000Y-81960000D01*
X172241000Y-81681000D02*
X172241000Y-84319000D01*
X172361000Y-81902000D02*
X172361000Y-84098000D01*
X170080000Y-84040000D02*
X170080000Y-85579000D01*
X172001000Y-81347000D02*
X172001000Y-81960000D01*
X171201000Y-84040000D02*
X171201000Y-85290000D01*
X170761000Y-80532000D02*
X170761000Y-81960000D01*
X172401000Y-81989000D02*
X172401000Y-84011000D01*
X171321000Y-84040000D02*
X171321000Y-85224000D01*
X170801000Y-84040000D02*
X170801000Y-85455000D01*
X170721000Y-84040000D02*
X170721000Y-85480000D01*
X171801000Y-81136000D02*
X171801000Y-81960000D01*
X171121000Y-84040000D02*
X171121000Y-85329000D01*
X171281000Y-84040000D02*
X171281000Y-85247000D01*
X171561000Y-84040000D02*
X171561000Y-85065000D01*
X170280000Y-80435000D02*
X170280000Y-81960000D01*
X170040000Y-84040000D02*
X170040000Y-85580000D01*
X170560000Y-80480000D02*
X170560000Y-81960000D01*
X171281000Y-80753000D02*
X171281000Y-81960000D01*
X170240000Y-80431000D02*
X170240000Y-81960000D01*
X170240000Y-84040000D02*
X170240000Y-85569000D01*
X172620000Y-83000000D02*
G75*
G03*
X172620000Y-83000000I-2620000J0D01*
G01*
%TO.C,Q2*%
X155850000Y-85530000D02*
X155850000Y-81930000D01*
X155838478Y-81891522D02*
G75*
G03*
X151400000Y-83730000I-1838478J-1838478D01*
G01*
X151399999Y-83730000D02*
G75*
G03*
X155838478Y-85568478I2600001J0D01*
G01*
%TO.C,U1*%
X175330000Y-93160000D02*
X165050000Y-93160000D01*
X165050000Y-93160000D02*
X165050000Y-98460000D01*
X175330000Y-98460000D02*
X175330000Y-96810000D01*
X175330000Y-94810000D02*
X175330000Y-93160000D01*
X165050000Y-98460000D02*
X175330000Y-98460000D01*
X175330000Y-94810000D02*
G75*
G03*
X175330000Y-96810000I0J-1000000D01*
G01*
%TO.C,R3*%
X164880000Y-110000000D02*
X165650000Y-110000000D01*
X165650000Y-111370000D02*
X172190000Y-111370000D01*
X165650000Y-108630000D02*
X165650000Y-111370000D01*
X172960000Y-110000000D02*
X172190000Y-110000000D01*
X172190000Y-111370000D02*
X172190000Y-108630000D01*
X172190000Y-108630000D02*
X165650000Y-108630000D01*
%TO.C,R2*%
X172190000Y-106370000D02*
X172190000Y-103630000D01*
X165650000Y-103630000D02*
X165650000Y-106370000D01*
X164880000Y-105000000D02*
X165650000Y-105000000D01*
X172190000Y-103630000D02*
X165650000Y-103630000D01*
X165650000Y-106370000D02*
X172190000Y-106370000D01*
X172960000Y-105000000D02*
X172190000Y-105000000D01*
%TO.C,C1*%
X163055000Y-82380000D02*
X163370000Y-82380000D01*
X163370000Y-87620000D02*
X163370000Y-82380000D01*
X163055000Y-87620000D02*
X163370000Y-87620000D01*
X160630000Y-87620000D02*
X160630000Y-82380000D01*
X160630000Y-82380000D02*
X160945000Y-82380000D01*
X160630000Y-87620000D02*
X160945000Y-87620000D01*
%TD*%
M02*
