M48
; DRILL file {KiCad (6.0.9)} date Thu Dec 15 09:26:17 2022
; FORMAT={-:-/ absolute / metric / decimal}
; #@! TF.CreationDate,2022-12-15T09:26:17+01:00
; #@! TF.GenerationSoftware,Kicad,Pcbnew,(6.0.9)
; #@! TF.FileFunction,Plated,1,2,PTH
FMAT,2
METRIC
; #@! TA.AperFunction,Plated,PTH,ComponentDrill
T1C0.750
; #@! TA.AperFunction,Plated,PTH,ViaDrill
T2C0.800
; #@! TA.AperFunction,Plated,PTH,ComponentDrill
T3C0.800
; #@! TA.AperFunction,Plated,PTH,ComponentDrill
T4C0.900
; #@! TA.AperFunction,Plated,PTH,ComponentDrill
T5C1.000
; #@! TA.AperFunction,Plated,PTH,ComponentDrill
T6C1.500
%
G90
G05
T1
X154.0Y-82.46
X154.0Y-83.73
X154.0Y-85.0
T2
X164.0Y-90.0
X169.0Y-90.0
T3
X146.0Y-81.92
X146.0Y-92.08
X146.0Y-97.92
X146.0Y-108.08
X152.0Y-100.47
X152.0Y-108.09
X158.0Y-100.47
X158.0Y-108.09
X162.0Y-82.5
X162.0Y-87.5
X163.84Y-105.0
X163.84Y-110.0
X166.38Y-92.0
X166.38Y-99.62
X168.92Y-92.0
X168.92Y-99.62
X169.0Y-83.0
X171.0Y-83.0
X171.46Y-92.0
X171.46Y-99.62
X174.0Y-92.0
X174.0Y-99.62
X174.0Y-105.0
X174.0Y-110.0
T4
X153.46Y-92.0
X156.0Y-92.0
T5
X184.0Y-91.2
X184.0Y-98.8
T6
X128.0Y-86.085
X128.0Y-106.575
T0
M30
