%TF.GenerationSoftware,KiCad,Pcbnew,(6.0.9)*%
%TF.CreationDate,2022-12-15T09:26:13+01:00*%
%TF.ProjectId,Pipek,50697065-6b2e-46b6-9963-61645f706362,rev?*%
%TF.SameCoordinates,Original*%
%TF.FileFunction,Copper,L2,Bot*%
%TF.FilePolarity,Positive*%
%FSLAX46Y46*%
G04 Gerber Fmt 4.6, Leading zero omitted, Abs format (unit mm)*
G04 Created by KiCad (PCBNEW (6.0.9)) date 2022-12-15 09:26:13*
%MOMM*%
%LPD*%
G01*
G04 APERTURE LIST*
%TA.AperFunction,ComponentPad*%
%ADD10R,2.000000X2.000000*%
%TD*%
%TA.AperFunction,ComponentPad*%
%ADD11C,2.000000*%
%TD*%
%TA.AperFunction,ComponentPad*%
%ADD12R,1.800000X1.800000*%
%TD*%
%TA.AperFunction,ComponentPad*%
%ADD13C,1.800000*%
%TD*%
%TA.AperFunction,ComponentPad*%
%ADD14C,1.600000*%
%TD*%
%TA.AperFunction,ComponentPad*%
%ADD15O,1.600000X1.600000*%
%TD*%
%TA.AperFunction,ComponentPad*%
%ADD16R,1.600000X1.600000*%
%TD*%
%TA.AperFunction,ComponentPad*%
%ADD17R,1.500000X1.050000*%
%TD*%
%TA.AperFunction,ComponentPad*%
%ADD18O,1.500000X1.050000*%
%TD*%
%TA.AperFunction,ComponentPad*%
%ADD19R,3.000000X3.000000*%
%TD*%
%TA.AperFunction,ComponentPad*%
%ADD20C,3.000000*%
%TD*%
%TA.AperFunction,ViaPad*%
%ADD21C,1.200000*%
%TD*%
%TA.AperFunction,Conductor*%
%ADD22C,1.000000*%
%TD*%
%TA.AperFunction,Conductor*%
%ADD23C,0.250000*%
%TD*%
G04 APERTURE END LIST*
D10*
%TO.P,LS1,1,1*%
%TO.N,Net-(LS1-Pad1)*%
X184000000Y-98800000D03*
D11*
%TO.P,LS1,2,2*%
%TO.N,GND*%
X184000000Y-91200000D03*
%TD*%
D12*
%TO.P,Q1,1,C*%
%TO.N,Net-(BT1-Pad1)*%
X156000000Y-92000000D03*
D13*
%TO.P,Q1,2,E*%
%TO.N,Net-(Q1-Pad2)*%
X153460000Y-92000000D03*
%TD*%
D14*
%TO.P,R4,1*%
%TO.N,Net-(D2-Pad2)*%
X146000000Y-97920000D03*
D15*
%TO.P,R4,2*%
%TO.N,Net-(C2-Pad1)*%
X146000000Y-108080000D03*
%TD*%
D16*
%TO.P,D1,1,K*%
%TO.N,Net-(C2-Pad1)*%
X158000000Y-100470000D03*
D15*
%TO.P,D1,2,A*%
%TO.N,Net-(D1-Pad2)*%
X158000000Y-108090000D03*
%TD*%
D14*
%TO.P,R1,1*%
%TO.N,Net-(Q1-Pad2)*%
X146000000Y-92080000D03*
D15*
%TO.P,R1,2*%
%TO.N,GND*%
X146000000Y-81920000D03*
%TD*%
D16*
%TO.P,D2,1,K*%
%TO.N,Net-(D1-Pad2)*%
X152000000Y-108090000D03*
D15*
%TO.P,D2,2,A*%
%TO.N,Net-(D2-Pad2)*%
X152000000Y-100470000D03*
%TD*%
D16*
%TO.P,C2,1*%
%TO.N,Net-(C2-Pad1)*%
X169000000Y-83000000D03*
D14*
%TO.P,C2,2*%
%TO.N,GND*%
X171000000Y-83000000D03*
%TD*%
D17*
%TO.P,Q2,1,C*%
%TO.N,Net-(Q2-Pad1)*%
X154000000Y-85000000D03*
D18*
%TO.P,Q2,2,B*%
%TO.N,Net-(Q1-Pad2)*%
X154000000Y-83730000D03*
%TO.P,Q2,3,E*%
%TO.N,GND*%
X154000000Y-82460000D03*
%TD*%
D16*
%TO.P,U1,1,GND*%
%TO.N,GND*%
X174000000Y-92000000D03*
D15*
%TO.P,U1,2,TR*%
%TO.N,Net-(C2-Pad1)*%
X171460000Y-92000000D03*
%TO.P,U1,3,Q*%
%TO.N,Net-(LS1-Pad1)*%
X168920000Y-92000000D03*
%TO.P,U1,4,R*%
%TO.N,Net-(Q2-Pad1)*%
X166380000Y-92000000D03*
%TO.P,U1,5,CV*%
%TO.N,Net-(C1-Pad1)*%
X166380000Y-99620000D03*
%TO.P,U1,6,THR*%
%TO.N,Net-(C2-Pad1)*%
X168920000Y-99620000D03*
%TO.P,U1,7,DIS*%
%TO.N,Net-(D1-Pad2)*%
X171460000Y-99620000D03*
%TO.P,U1,8,VCC*%
%TO.N,Net-(BT1-Pad1)*%
X174000000Y-99620000D03*
%TD*%
D14*
%TO.P,R3,1*%
%TO.N,Net-(BT1-Pad1)*%
X174000000Y-110000000D03*
D15*
%TO.P,R3,2*%
%TO.N,Net-(D1-Pad2)*%
X163840000Y-110000000D03*
%TD*%
D14*
%TO.P,R2,1*%
%TO.N,Net-(BT1-Pad1)*%
X174000000Y-105000000D03*
D15*
%TO.P,R2,2*%
%TO.N,Net-(Q2-Pad1)*%
X163840000Y-105000000D03*
%TD*%
D14*
%TO.P,C1,1*%
%TO.N,Net-(C1-Pad1)*%
X162000000Y-87500000D03*
%TO.P,C1,2*%
%TO.N,GND*%
X162000000Y-82500000D03*
%TD*%
D19*
%TO.P,BT1,1,+*%
%TO.N,Net-(BT1-Pad1)*%
X128000000Y-106575001D03*
D20*
%TO.P,BT1,2,-*%
%TO.N,GND*%
X128000000Y-86085001D03*
%TD*%
D21*
%TO.N,Net-(C2-Pad1)*%
X164000000Y-90000000D03*
X169000000Y-90000000D03*
%TD*%
D22*
%TO.N,Net-(C2-Pad1)*%
X164000000Y-92000000D02*
X164000000Y-90000000D01*
X170500000Y-88500000D02*
X171460000Y-89460000D01*
X148000000Y-104000000D02*
X146000000Y-106000000D01*
X169777817Y-89222183D02*
X169000000Y-90000000D01*
X164000000Y-93000000D02*
X164000000Y-92000000D01*
X158000000Y-100470000D02*
X156530000Y-100470000D01*
X171460000Y-89460000D02*
X171460000Y-92000000D01*
X158000000Y-100470000D02*
X159470000Y-100470000D01*
X168920000Y-99620000D02*
X168920000Y-97920000D01*
X161000000Y-106000000D02*
X163000000Y-108000000D01*
X156530000Y-100470000D02*
X153000000Y-104000000D01*
X168920000Y-104920000D02*
X168920000Y-99620000D01*
X168920000Y-97920000D02*
X168000000Y-97000000D01*
X168000000Y-97000000D02*
X164000000Y-93000000D01*
X169000000Y-83000000D02*
X169000000Y-87000000D01*
X169000000Y-105000000D02*
X168920000Y-104920000D01*
X153000000Y-104000000D02*
X148000000Y-104000000D01*
X169000000Y-87000000D02*
X170500000Y-88500000D01*
X146000000Y-106000000D02*
X146000000Y-108080000D01*
X161000000Y-102000000D02*
X161000000Y-106000000D01*
X170500000Y-88500000D02*
X169777817Y-89222183D01*
X159470000Y-100470000D02*
X161000000Y-102000000D01*
X166000000Y-108000000D02*
X169000000Y-105000000D01*
X163000000Y-108000000D02*
X166000000Y-108000000D01*
%TO.N,Net-(D2-Pad2)*%
X152000000Y-99000000D02*
X152000000Y-100470000D01*
X146000000Y-97920000D02*
X150920000Y-97920000D01*
X150920000Y-97920000D02*
X152000000Y-99000000D01*
%TO.N,Net-(BT1-Pad1)*%
X174000000Y-110000000D02*
X174000000Y-105000000D01*
X143000000Y-114000000D02*
X143000000Y-112000000D01*
X143000000Y-114000000D02*
X145000000Y-114000000D01*
X143000000Y-96000000D02*
X144000000Y-95000000D01*
X173000000Y-114000000D02*
X174000000Y-113000000D01*
X128000000Y-111000000D02*
X128000000Y-106575001D01*
X144000000Y-95000000D02*
X155000000Y-95000000D01*
X143000000Y-112000000D02*
X142000000Y-113000000D01*
X174000000Y-99620000D02*
X174000000Y-105000000D01*
X142000000Y-113000000D02*
X141000000Y-114000000D01*
X143000000Y-112000000D02*
X143000000Y-96000000D01*
X144000000Y-113000000D02*
X143000000Y-114000000D01*
X174000000Y-113000000D02*
X174000000Y-110000000D01*
X145000000Y-114000000D02*
X173000000Y-114000000D01*
X143000000Y-114000000D02*
X141000000Y-114000000D01*
X144000000Y-113000000D02*
X145000000Y-114000000D01*
X141000000Y-114000000D02*
X131000000Y-114000000D01*
X143000000Y-112000000D02*
X144000000Y-113000000D01*
X155000000Y-95000000D02*
X156000000Y-94000000D01*
X156000000Y-94000000D02*
X156000000Y-92000000D01*
X131000000Y-114000000D02*
X128000000Y-111000000D01*
X142000000Y-113000000D02*
X143000000Y-114000000D01*
%TO.N,Net-(Q1-Pad2)*%
X149080000Y-86900000D02*
X152250000Y-83730000D01*
X149080000Y-92080000D02*
X149080000Y-86900000D01*
X149080000Y-92080000D02*
X153380000Y-92080000D01*
D23*
X153380000Y-92080000D02*
X153460000Y-92000000D01*
D22*
X152250000Y-83730000D02*
X154000000Y-83730000D01*
X146000000Y-92080000D02*
X149080000Y-92080000D01*
%TO.N,Net-(Q2-Pad1)*%
X163840000Y-105000000D02*
X163840000Y-100840000D01*
X159000000Y-96000000D02*
X159000000Y-85000000D01*
X166380000Y-87380000D02*
X166380000Y-92000000D01*
X159000000Y-85000000D02*
X164000000Y-85000000D01*
X163840000Y-100840000D02*
X159000000Y-96000000D01*
X159000000Y-85000000D02*
X154000000Y-85000000D01*
X164000000Y-85000000D02*
X166380000Y-87380000D01*
%TO.N,GND*%
X170000000Y-80000000D02*
X163000000Y-80000000D01*
X171000000Y-81000000D02*
X170000000Y-80000000D01*
X174000000Y-88000000D02*
X171000000Y-85000000D01*
X129080000Y-81920000D02*
X128000000Y-83000000D01*
X154000000Y-82460000D02*
X161960000Y-82460000D01*
X162000000Y-82500000D02*
X162000000Y-81000000D01*
X146000000Y-81920000D02*
X146000000Y-80000000D01*
X146000000Y-81920000D02*
X129080000Y-81920000D01*
X180400000Y-92000000D02*
X177000000Y-92000000D01*
X174000000Y-92000000D02*
X177000000Y-92000000D01*
X171000000Y-83000000D02*
X171000000Y-81000000D01*
X174000000Y-92000000D02*
X174000000Y-88000000D01*
X162000000Y-81000000D02*
X163000000Y-80000000D01*
X128000000Y-83000000D02*
X128000000Y-86085001D01*
X181200000Y-91200000D02*
X180400000Y-92000000D01*
X153000000Y-79000000D02*
X154000000Y-80000000D01*
X181200000Y-91200000D02*
X184000000Y-91200000D01*
X146000000Y-80000000D02*
X147000000Y-79000000D01*
X171000000Y-85000000D02*
X171000000Y-83000000D01*
X154000000Y-80000000D02*
X154000000Y-82460000D01*
X147000000Y-79000000D02*
X153000000Y-79000000D01*
X161960000Y-82460000D02*
X162000000Y-82500000D01*
%TO.N,Net-(C1-Pad1)*%
X162000000Y-87500000D02*
X162000000Y-94000000D01*
X166380000Y-99620000D02*
X166380000Y-98380000D01*
X166380000Y-98380000D02*
X162000000Y-94000000D01*
%TO.N,Net-(D1-Pad2)*%
X152000000Y-108090000D02*
X158000000Y-108090000D01*
X159910000Y-110000000D02*
X163840000Y-110000000D01*
X167000000Y-110000000D02*
X171460000Y-105540000D01*
X158000000Y-108090000D02*
X159910000Y-110000000D01*
X163840000Y-110000000D02*
X167000000Y-110000000D01*
X171460000Y-105540000D02*
X171460000Y-99620000D01*
%TO.N,Net-(LS1-Pad1)*%
X168920000Y-93920000D02*
X173000000Y-98000000D01*
X168920000Y-92000000D02*
X168920000Y-93920000D01*
X173000000Y-98000000D02*
X180000000Y-98000000D01*
X180800000Y-98800000D02*
X184000000Y-98800000D01*
X180000000Y-98000000D02*
X180800000Y-98800000D01*
%TD*%
M02*
